<svg width="49" height="25" viewBox="0 0 49 25" fill="none" xmlns="http://www.w3.org/2000/svg">
<path d="M36.6005 0H12.3995C9.11094 0 5.95708 1.31696 3.63173 3.66117C1.30637 6.00537 0 9.18479 0 12.5C0 15.8152 1.30637 18.9946 3.63173 21.3388C5.95708 23.683 9.11094 25 12.3995 25H36.6005C39.8891 25 43.0429 23.683 45.3683 21.3388C47.6936 18.9946 49 15.8152 49 12.5C49 9.18479 47.6936 6.00537 45.3683 3.66117C43.0429 1.31696 39.8891 0 36.6005 0ZM36.6005 22.4883H12.3995C9.77174 22.4883 7.25161 21.4359 5.3935 19.5628C3.5354 17.6896 2.49153 15.1491 2.49153 12.5C2.49153 9.85094 3.5354 7.31039 5.3935 5.43722C7.25161 3.56406 9.77174 2.51172 12.3995 2.51172H36.6005C39.2283 2.51172 41.7484 3.56406 43.6065 5.43722C45.4646 7.31039 46.5085 9.85094 46.5085 12.5C46.5085 15.1491 45.4646 17.6896 43.6065 19.5628C41.7484 21.4359 39.2283 22.4883 36.6005 22.4883Z" fill="#BCBCBC"/>
<path d="M36.6005 22.4883H12.3995C9.77174 22.4883 7.25161 21.4359 5.3935 19.5628C3.5354 17.6896 2.49153 15.1491 2.49153 12.5C2.49153 9.85094 3.5354 7.31039 5.3935 5.43722C7.25161 3.56406 9.77174 2.51172 12.3995 2.51172H36.6005C39.2283 2.51172 41.7484 3.56406 43.6065 5.43722C45.4646 7.31039 46.5085 9.85094 46.5085 12.5C46.5085 15.1491 45.4646 17.6896 43.6065 19.5628C41.7484 21.4359 39.2283 22.4883 36.6005 22.4883Z" fill="white"/>
<path d="M12.7574 3.88477C11.0668 3.88311 9.4137 4.38698 8.00724 5.33262C6.60078 6.27827 5.50413 7.6232 4.85604 9.19727C4.20794 10.7713 4.03752 12.5038 4.36633 14.1756C4.69513 15.8473 5.5084 17.3832 6.70324 18.5889C7.89808 19.7946 9.4208 20.6159 11.0788 20.949C12.7367 21.2821 14.4555 21.112 16.0175 20.4602C17.5796 19.8084 18.9148 18.7041 19.8542 17.2872C20.7936 15.8703 21.295 14.2043 21.295 12.5C21.2906 10.2179 20.39 8.03041 18.79 6.41594C17.1901 4.80147 15.0211 3.89141 12.7574 3.88477Z" fill="#BCBCBC"/>
</svg>
